<svg version="1.1" xmlns="http://www.w3.org/2000/svg" viewBox="0 0 1221.774203041345 898" width="1221.774203041345" height="898">
  <!-- svg-source:excalidraw -->
  
  <defs>
    <style class="style-fonts">
      @font-face {
        font-family: "Virgil";
        src: url("https://excalidraw.com/Virgil.woff2");
      }
      @font-face {
        font-family: "Cascadia";
        src: url("https://excalidraw.com/Cascadia.woff2");
      }
    </style>
  </defs>
  <rect x="0" y="0" width="1221.774203041345" height="898" fill="#ffffff"></rect><g stroke-linecap="round" transform="translate(262.11631097063423 592) rotate(0 339.5 134.5)"><path d="M32 0 M32 0 C232.85 -2.23, 433.56 -2.38, 647 0 M32 0 C270.92 -1.01, 510.47 -1.04, 647 0 M647 0 C667.7 1.04, 678.22 10.87, 679 32 M647 0 C666.91 1.66, 680.85 8.93, 679 32 M679 32 C679.17 93.83, 679.7 151.39, 679 237 M679 32 C679.54 102.78, 678.68 171.89, 679 237 M679 237 C677.35 256.41, 668.61 269.23, 647 269 M679 237 C678.67 258.24, 666.96 268.12, 647 269 M647 269 C450.67 269.36, 253.6 269.61, 32 269 M647 269 C469.33 267.62, 292.65 267.79, 32 269 M32 269 C9.82 267.03, 1.74 259.18, 0 237 M32 269 C11.65 267.95, -0.15 258.91, 0 237 M0 237 C0.72 185.48, -0.95 132.12, 0 32 M0 237 C-0.56 167.98, -1.95 99.85, 0 32 M0 32 C0.19 11.41, 8.76 1.69, 32 0 M0 32 C-1.19 10.88, 8.53 -1.34, 32 0" stroke="#495057" stroke-width="1" fill="none"></path></g><g stroke-linecap="round" transform="translate(375.11631097063423 61) rotate(0 90 83.5)"><path d="M32 0 M32 0 C61.8 -0.14, 90.15 -0.14, 148 0 M32 0 C77.78 0.78, 123.97 -0.23, 148 0 M148 0 C168.63 1.19, 180.94 10.46, 180 32 M148 0 C168.5 1, 181.78 12.86, 180 32 M180 32 C180.1 61.23, 179.42 87.76, 180 135 M180 32 C180.07 69, 179.54 105.5, 180 135 M180 135 C180.66 155.81, 170.83 166.55, 148 167 M180 135 C180.74 156.21, 169.85 169.28, 148 167 M148 167 C116.71 167.83, 85.45 165.56, 32 167 M148 167 C113.91 165.36, 79.35 165.96, 32 167 M32 167 C10.56 168.98, 0.64 156.45, 0 135 M32 167 C8.38 169.28, -1.45 156.09, 0 135 M0 135 C0.65 94.98, 2.13 56.77, 0 32 M0 135 C0.11 111.95, 1.06 90.78, 0 32 M0 32 C-1.82 11.12, 10.79 -1.21, 32 0 M0 32 C-0.62 10.93, 11.33 -1.74, 32 0" stroke="#000000" stroke-width="1" fill="none"></path></g><g stroke-linecap="round" transform="translate(738.1163109706342 64.00000000000003) rotate(0 81 80.49999999999999)"><path d="M32 0 M32 0 C60.79 0, 89.57 0, 130 0 M32 0 C62.38 0, 92.76 0, 130 0 M130 0 C151.33 0, 162 10.67, 162 32 M130 0 C151.33 0, 162 10.67, 162 32 M162 32 C162 60.8, 162 89.61, 162 129 M162 32 C162 53.72, 162 75.43, 162 129 M162 129 C162 150.33, 151.33 161, 130 161 M162 129 C162 150.33, 151.33 161, 130 161 M130 161 C97.67 161, 65.35 161, 32 161 M130 161 C108.12 161, 86.25 161, 32 161 M32 161 C10.67 161, 0 150.33, 0 129 M32 161 C10.67 161, 0 150.33, 0 129 M0 129 C0 99.88, 0 70.76, 0 32 M0 129 C0 105.46, 0 81.92, 0 32 M0 32 C0 10.67, 10.67 0, 32 0 M0 32 C0 10.67, 10.67 0, 32 0" stroke="#000000" stroke-width="1" fill="none"></path></g><g transform="translate(399.11631097063423 28) rotate(0 65.919921875 12.5)"><text x="0" y="0" font-family="Virgil, Segoe UI Emoji" font-size="20px" fill="#000000" text-anchor="start" style="white-space: pre;" direction="ltr" dominant-baseline="text-before-edge">RequestFilter</text></g><g transform="translate(750.1163109706342 27) rotate(0 69.69992065429688 12.5)"><text x="0" y="0" font-family="Virgil, Segoe UI Emoji" font-size="20px" fill="#000000" text-anchor="start" style="white-space: pre;" direction="ltr" dominant-baseline="text-before-edge">ResponseFilter</text></g><g stroke-linecap="round"><g transform="translate(13.116310970634231 663) rotate(0 117.9656977533549 1.1599854459406345)"><path d="M0.21 -1.67 C39.95 -1.3, 199.13 3.68, 239.05 3.99 M-3.12 3.59 C36.11 3.05, 196.14 0.38, 236.29 0.2" stroke="#000000" stroke-width="1" fill="none"></path></g><g transform="translate(13.116310970634231 663) rotate(0 117.9656977533549 1.1599854459406345)"><path d="M205.83 9.42 C220.33 6.94, 223.95 4.81, 235.43 3.79 M206.27 12.64 C217.41 7.55, 223.66 6.9, 234.7 -0.22" stroke="#000000" stroke-width="1" fill="none"></path></g><g transform="translate(13.116310970634231 663) rotate(0 117.9656977533549 1.1599854459406345)"><path d="M205.6 -11.1 C220.43 -6.97, 224.12 -2.5, 235.43 3.79 M206.03 -7.88 C217.01 -7.41, 223.33 -2.48, 234.7 -0.22" stroke="#000000" stroke-width="1" fill="none"></path></g></g><mask></mask><g transform="translate(13.116310970634231 626) rotate(0 110.9898681640625 12.5)"><text x="0" y="0" font-family="Virgil, Segoe UI Emoji" font-size="20px" fill="#000000" text-anchor="start" style="white-space: pre;" direction="ltr" dominant-baseline="text-before-edge">User request(id=#123)</text></g><g stroke-linecap="round" transform="translate(287.11631097063423 610) rotate(0 117.5 117.5)"><path d="M32 0 M32 0 C80.79 -1.81, 132.54 -0.42, 203 0 M203 0 C223.07 0.18, 233.06 11, 235 32 M235 32 C232.51 89.67, 231.85 143.12, 235 203 M235 203 C234.17 222.57, 222.64 236.01, 203 235 M203 235 C138.8 235.18, 72.21 234.01, 32 235 M32 235 C10.25 233.57, 1.61 226.01, 0 203 M0 203 C2.3 139, 3.09 74.63, 0 32 M0 32 C-1.12 9.25, 11.72 -1.53, 32 0" stroke="#a61e4d" stroke-width="1.5" fill="none" stroke-dasharray="8 9"></path></g><g stroke-linecap="round" transform="translate(676.1163109706342 625) rotate(0 129 111.5)"><path d="M32 0 M32 0 C81.99 0.1, 134.94 -2.97, 226 0 M226 0 C246.66 1.28, 258.47 10.01, 258 32 M258 32 C257.66 76.88, 258.13 116.76, 258 191 M258 191 C259.97 214.06, 245.43 223.3, 226 223 M226 223 C160.24 225.87, 90.94 225.67, 32 223 M32 223 C10.88 221.26, -0.27 210.79, 0 191 M0 191 C-0.12 141.43, 1.77 95.45, 0 32 M0 32 C-1.21 9.25, 11.83 -0.11, 32 0" stroke="#a61e4d" stroke-width="1.5" fill="none" stroke-dasharray="8 9"></path></g><g transform="translate(319.11631097063423 723) rotate(0 84.10989379882812 12.5)"><text x="0" y="0" font-family="Virgil, Segoe UI Emoji" font-size="20px" fill="#a61e4d" text-anchor="start" style="white-space: pre;" direction="ltr" dominant-baseline="text-before-edge">ext-plugin-pre-req</text></g><g stroke-linecap="round"><g transform="translate(529.1163109706342 591) rotate(0 66.71947194188834 -1.2698931083083096)"><path d="M1.14 -0.7 C23.08 -0.99, 110.38 -1.68, 132.3 -1.84" stroke="#a61e4d" stroke-width="1.5" fill="none" stroke-dasharray="8 9"></path></g></g><mask></mask><g transform="translate(535.1163109706342 595) rotate(0 67.73991394042969 12.5)"><text x="0" y="0" font-family="Virgil, Segoe UI Emoji" font-size="20px" fill="#a61e4d" text-anchor="start" style="white-space: pre;" direction="ltr" dominant-baseline="text-before-edge">built-in plugins</text></g><g transform="translate(699.0064171718061 748.5) rotate(0 95.85987854003906 12.5)"><text x="0" y="0" font-family="Virgil, Segoe UI Emoji" font-size="20px" fill="#a61e4d" text-anchor="start" style="white-space: pre;" direction="ltr" dominant-baseline="text-before-edge">ext-plugin-post-resp</text></g><g stroke-linecap="round"><g transform="translate(1211.1163109706342 773) rotate(0 -134.33044551629314 0.8290580489367017)"><path d="M0.66 0.31 C-44.42 0.86, -224.47 2.25, -269.32 2.23 M-0.46 -0.58 C-45.24 -0.25, -222.21 0.35, -266.98 0.61" stroke="#000000" stroke-width="1" fill="none"></path></g><g transform="translate(1211.1163109706342 773) rotate(0 -134.33044551629314 0.8290580489367017)"><path d="M-238.33 -10.97 C-248.41 -5.26, -262.82 0.35, -266.05 -0.02 M-237.95 -10.42 C-248.61 -5.47, -259.2 -2.4, -267.33 0.56" stroke="#000000" stroke-width="1" fill="none"></path></g><g transform="translate(1211.1163109706342 773) rotate(0 -134.33044551629314 0.8290580489367017)"><path d="M-238.23 9.55 C-248.17 7.19, -262.62 4.73, -266.05 -0.02 M-237.85 10.1 C-248.7 7.87, -259.32 3.75, -267.33 0.56" stroke="#000000" stroke-width="1" fill="none"></path></g></g><mask></mask><g transform="translate(996.1163109706342 740) rotate(0 87.42990112304688 12.5)"><text x="0" y="0" font-family="Virgil, Segoe UI Emoji" font-size="20px" fill="#000000" text-anchor="start" style="white-space: pre;" direction="ltr" dominant-baseline="text-before-edge">response(id=#123)</text></g><g transform="translate(528.1163109706342 863) rotate(0 36.129974365234375 12.5)"><text x="0" y="0" font-family="Virgil, Segoe UI Emoji" font-size="20px" fill="#000000" text-anchor="start" style="white-space: pre;" direction="ltr" dominant-baseline="text-before-edge">APISIX</text></g><g stroke-linecap="round" transform="translate(334.11631097063423 10) rotate(0 291.5 123.5)"><path d="M32 0 M32 0 C231.14 -1.37, 429.38 -0.56, 551 0 M551 0 C570.4 -1.2, 584.1 12.27, 583 32 M583 32 C585.52 100.73, 585.45 169.65, 583 215 M583 215 C582.29 235.92, 574 246.53, 551 247 M551 247 C370.06 246.95, 186.92 246.6, 32 247 M32 247 C11.51 245.59, -0.48 238.03, 0 215 M0 215 C1.18 152.69, -0.64 89.74, 0 32 M0 32 C-0.51 9.66, 9.13 -0.49, 32 0" stroke="#495057" stroke-width="1.5" fill="none" stroke-dasharray="8 9"></path></g><g transform="translate(929.1163109706342 119) rotate(0 86.71218872070312 10)"><text x="0" y="0" font-family="Virgil, Segoe UI Emoji" font-size="16px" fill="#495057" text-anchor="start" style="white-space: pre;" direction="ltr" dominant-baseline="text-before-edge">session manager plugin</text></g><g stroke-linecap="round" transform="translate(550.1163109706342 262) rotate(0 58.5 22)"><path d="M11 0 M11 0 C43.42 0.26, 67.22 1.53, 106 0 M106 0 C112.47 3.6, 115.86 1.49, 117 11 M117 11 C119.47 17.56, 116.74 29.08, 117 33 M117 33 C113.81 39.5, 111.49 47.97, 106 44 M106 44 C75.51 43.92, 52.45 43.11, 11 44 M11 44 C0.12 47.32, 3.16 39.87, 0 33 M0 33 C-2.67 26.89, -1.15 18.91, 0 11 M0 11 C1.52 1.21, 2.2 -0.45, 11 0" stroke="#495057" stroke-width="1.5" fill="none" stroke-dasharray="8 9"></path></g><g transform="translate(564.5042199061811 274) rotate(0 44.112091064453125 10)"><text x="44.112091064453125" y="0" font-family="Virgil, Segoe UI Emoji" font-size="16px" fill="#1864ab" text-anchor="middle" style="white-space: pre;" direction="ltr" dominant-baseline="text-before-edge">unix socket</text></g><g stroke-linecap="round"><g transform="translate(404.11631097063423 611) rotate(0 84.983420689404 -153.799901778996)"><path d="M-1.72 -1.02 C27.33 -52.3, 142.53 -255.78, 171.69 -306.58" stroke="#495057" stroke-width="1.5" fill="none" stroke-dasharray="8 9"></path></g><g transform="translate(404.11631097063423 611) rotate(0 84.983420689404 -153.799901778996)"><path d="M165.19 -277.45 C165.22 -281.34, 167.4 -292.41, 174.84 -305.4" stroke="#495057" stroke-width="1.5" fill="none"></path></g><g transform="translate(404.11631097063423 611) rotate(0 84.983420689404 -153.799901778996)"><path d="M147.36 -287.6 C151.14 -289.18, 157.01 -298.15, 174.84 -305.4" stroke="#495057" stroke-width="1.5" fill="none"></path></g></g><mask></mask><g stroke-linecap="round"><g transform="translate(800.1163109706342 621) rotate(0 -78.35274344235654 -155.17870599478485)"><path d="M2.32 2.17 C-24.21 -49.61, -131.63 -260.42, -159.02 -312.53" stroke="#495057" stroke-width="1.5" fill="none" stroke-dasharray="8 9"></path></g><g transform="translate(800.1163109706342 621) rotate(0 -78.35274344235654 -155.17870599478485)"><path d="M-133.87 -289.36 C-147.02 -299.46, -150.77 -307.43, -162.11 -308.81" stroke="#495057" stroke-width="1.5" fill="none"></path></g><g transform="translate(800.1163109706342 621) rotate(0 -78.35274344235654 -155.17870599478485)"><path d="M-152.1 -279.95 C-159.58 -293.21, -157.78 -304.04, -162.11 -308.81" stroke="#495057" stroke-width="1.5" fill="none"></path></g></g><mask></mask><g stroke-linecap="round" transform="translate(595.1163109706342 93) rotate(0 49 47.5)"><path d="M23.75 0 M23.75 0 C39.84 0, 55.93 0, 74.25 0 M23.75 0 C40.48 0, 57.21 0, 74.25 0 M74.25 0 C90.08 0, 98 7.92, 98 23.75 M74.25 0 C90.08 0, 98 7.92, 98 23.75 M98 23.75 C98 38.94, 98 54.13, 98 71.25 M98 23.75 C98 36.26, 98 48.76, 98 71.25 M98 71.25 C98 87.08, 90.08 95, 74.25 95 M98 71.25 C98 87.08, 90.08 95, 74.25 95 M74.25 95 C61.34 95, 48.43 95, 23.75 95 M74.25 95 C61.06 95, 47.87 95, 23.75 95 M23.75 95 C7.92 95, 0 87.08, 0 71.25 M23.75 95 C7.92 95, 0 87.08, 0 71.25 M0 71.25 C0 61.22, 0 51.19, 0 23.75 M0 71.25 C0 54, 0 36.75, 0 23.75 M0 23.75 C0 7.92, 7.92 0, 23.75 0 M0 23.75 C0 7.92, 7.92 0, 23.75 0" stroke="#1864ab" stroke-width="1" fill="none"></path></g><g transform="translate(612.7882470057905 120.5) rotate(0 31.32806396484375 20)"><text x="31.32806396484375" y="0" font-family="Virgil, Segoe UI Emoji" font-size="16px" fill="#1864ab" text-anchor="middle" style="white-space: pre;" direction="ltr" dominant-baseline="text-before-edge">session </text><text x="31.32806396484375" y="20" font-family="Virgil, Segoe UI Emoji" font-size="16px" fill="#1864ab" text-anchor="middle" style="white-space: pre;" direction="ltr" dominant-baseline="text-before-edge">store</text></g><g stroke-linecap="round"><g transform="translate(597.1163109706342 124) rotate(0 -21.5 -0.5)"><path d="M0 0 C-7.17 -0.17, -35.83 -0.83, -43 -1 M0 0 C-7.17 -0.17, -35.83 -0.83, -43 -1" stroke="#1864ab" stroke-width="1" fill="none"></path></g><g transform="translate(597.1163109706342 124) rotate(0 -21.5 -0.5)"><path d="M-22.63 -7.88 C-28.35 -5.95, -34.08 -4.01, -43 -1 M-22.63 -7.88 C-27.39 -6.28, -32.15 -4.67, -43 -1" stroke="#1864ab" stroke-width="1" fill="none"></path></g><g transform="translate(597.1163109706342 124) rotate(0 -21.5 -0.5)"><path d="M-22.97 6.82 C-28.6 4.62, -34.23 2.42, -43 -1 M-22.97 6.82 C-27.65 5, -32.33 3.17, -43 -1" stroke="#1864ab" stroke-width="1" fill="none"></path></g></g><mask></mask><g stroke-linecap="round"><g transform="translate(556.1163109706342 145) rotate(0 19 0.5)"><path d="M0 0 C6.33 0.17, 31.67 0.83, 38 1 M0 0 C6.33 0.17, 31.67 0.83, 38 1" stroke="#1864ab" stroke-width="1" fill="none"></path></g><g transform="translate(556.1163109706342 145) rotate(0 19 0.5)"><path d="M19.97 7.03 C24.67 5.46, 29.36 3.89, 38 1 M19.97 7.03 C25.32 5.24, 30.66 3.46, 38 1" stroke="#1864ab" stroke-width="1" fill="none"></path></g><g transform="translate(556.1163109706342 145) rotate(0 19 0.5)"><path d="M20.32 -5.97 C24.92 -4.15, 29.53 -2.34, 38 1 M20.32 -5.97 C25.56 -3.9, 30.8 -1.84, 38 1" stroke="#1864ab" stroke-width="1" fill="none"></path></g></g><mask></mask><g stroke-linecap="round"><g transform="translate(737.1163109706342 122) rotate(0 -23.5 0)"><path d="M0 0 C-7.83 0, -39.17 0, -47 0 M0 0 C-7.83 0, -39.17 0, -47 0" stroke="#1864ab" stroke-width="1" fill="none"></path></g><g transform="translate(737.1163109706342 122) rotate(0 -23.5 0)"><path d="M-24.92 -8.04 C-31.65 -5.59, -38.38 -3.14, -47 0 M-24.92 -8.04 C-31.16 -5.77, -37.4 -3.49, -47 0" stroke="#1864ab" stroke-width="1" fill="none"></path></g><g transform="translate(737.1163109706342 122) rotate(0 -23.5 0)"><path d="M-24.92 8.04 C-31.65 5.59, -38.38 3.14, -47 0 M-24.92 8.04 C-31.16 5.77, -37.4 3.49, -47 0" stroke="#1864ab" stroke-width="1" fill="none"></path></g></g><mask></mask><g stroke-linecap="round"><g transform="translate(693.1163109706342 141) rotate(0 22.5 0.5)"><path d="M0 0 C7.5 0.17, 37.5 0.83, 45 1 M0 0 C7.5 0.17, 37.5 0.83, 45 1" stroke="#1864ab" stroke-width="1" fill="none"></path></g><g transform="translate(693.1163109706342 141) rotate(0 22.5 0.5)"><path d="M23.69 8.23 C28.98 6.43, 34.28 4.63, 45 1 M23.69 8.23 C31.87 5.45, 40.05 2.68, 45 1" stroke="#1864ab" stroke-width="1" fill="none"></path></g><g transform="translate(693.1163109706342 141) rotate(0 22.5 0.5)"><path d="M24.03 -7.17 C29.24 -5.14, 34.45 -3.11, 45 1 M24.03 -7.17 C32.08 -4.03, 40.13 -0.9, 45 1" stroke="#1864ab" stroke-width="1" fill="none"></path></g></g><mask></mask><g transform="translate(748.1163109706342 85) rotate(0 73.48014831542969 60)"><text x="0" y="0" font-family="Virgil, Segoe UI Emoji" font-size="16px" fill="#5f3dc4" text-anchor="start" style="white-space: pre;" direction="ltr" dominant-baseline="text-before-edge">1. sets cookie on</text><text x="0" y="20" font-family="Virgil, Segoe UI Emoji" font-size="16px" fill="#5f3dc4" text-anchor="start" style="white-space: pre;" direction="ltr" dominant-baseline="text-before-edge">client from </text><text x="0" y="40" font-family="Virgil, Segoe UI Emoji" font-size="16px" fill="#5f3dc4" text-anchor="start" style="white-space: pre;" direction="ltr" dominant-baseline="text-before-edge">session for that </text><text x="0" y="60" font-family="Virgil, Segoe UI Emoji" font-size="16px" fill="#5f3dc4" text-anchor="start" style="white-space: pre;" direction="ltr" dominant-baseline="text-before-edge">request ID.</text><text x="0" y="80" font-family="Virgil, Segoe UI Emoji" font-size="16px" fill="#5f3dc4" text-anchor="start" style="white-space: pre;" direction="ltr" dominant-baseline="text-before-edge">2. checks response</text><text x="0" y="100" font-family="Virgil, Segoe UI Emoji" font-size="16px" fill="#5f3dc4" text-anchor="start" style="white-space: pre;" direction="ltr" dominant-baseline="text-before-edge">to enforce policy</text></g><g transform="translate(402.11631097063423 86) rotate(0 76.24015045166016 50)"><text x="0" y="0" font-family="Virgil, Segoe UI Emoji" font-size="16px" fill="#5f3dc4" text-anchor="start" style="white-space: pre;" direction="ltr" dominant-baseline="text-before-edge">1. creates session </text><text x="0" y="20" font-family="Virgil, Segoe UI Emoji" font-size="16px" fill="#5f3dc4" text-anchor="start" style="white-space: pre;" direction="ltr" dominant-baseline="text-before-edge">with timeouts.</text><text x="0" y="40" font-family="Virgil, Segoe UI Emoji" font-size="16px" fill="#5f3dc4" text-anchor="start" style="white-space: pre;" direction="ltr" dominant-baseline="text-before-edge">2. sets session </text><text x="0" y="60" font-family="Virgil, Segoe UI Emoji" font-size="16px" fill="#5f3dc4" text-anchor="start" style="white-space: pre;" direction="ltr" dominant-baseline="text-before-edge">data from client </text><text x="0" y="80" font-family="Virgil, Segoe UI Emoji" font-size="16px" fill="#5f3dc4" text-anchor="start" style="white-space: pre;" direction="ltr" dominant-baseline="text-before-edge">for subsequent use</text></g></svg>